<svg class="w-auto h-full shrink-0 fill-logo-color"  xmlns="http://www.w3.org/2000/svg" viewBox="0 0 205.18 62.55">
    <path d="M13.92 32.41c4.05 3.08 8.49 6.46 14.05 8.03.02 0 .04.01.06.02.26.07.53.14.8.21 1.7.45 3.47.71 5.32.71.95 0 1.88-.09 2.8-.21.17-.02.33-.05.49-.08 1.24-.2 2.44-.51 3.6-.92.07-.02.14-.05.21-.08.35-.13.71-.25 1.05-.4 4.19-1.7 8-4.45 11.53-7 4.61-3.32 8.96-6.46 12.98-6.46h1.53v-3.18h-1.53c-4.76 0-9.25 3.04-13.97 6.44 1.26-2.67 1.99-5.65 1.99-8.8C54.83 9.26 45.56 0 34.13 0S13.44 9.27 13.44 20.69c0 3.2.75 6.21 2.04 8.92-4.47-3.41-8.73-6.55-13.81-6.55H0v3.18h1.67c4.14 0 7.9 2.86 12.24 6.17h.01ZM34.14 3.18c5.62 0 10.91 2.7 14.2 7.26 2.15 2.98 3.31 6.56 3.31 10.24 0 7.23-4.38 13.43-10.62 16.1-.12.05-.23.09-.35.14-.23.09-.48.18-.72.26a18.828 18.828 0 0 1-3.53.85c-.25.03-.51.07-.77.09-.13.01-.27.01-.41.02-.28.02-.56.03-.84.03-1.49 0-2.89-.16-4.23-.44-7.76-1.8-13.54-8.73-13.55-17.03 0-9.67 7.83-17.51 17.5-17.51Zm34.19 35.21H66.8c-4.29 0-8.13 1.93-12.58 4.17-5.41 2.73-11.55 5.81-19.81 5.81s-15.25-3.22-21.09-6.06C9 40.21 5.26 38.39 1.68 38.39H0v-3.18h1.67c4.32 0 8.55 2.06 13.04 4.24 5.53 2.69 11.8 5.74 19.7 5.74s13.04-2.78 18.38-5.47c4.61-2.32 8.96-4.51 14.01-4.51h1.53v3.18Zm-3.88 8.88h3.88v3.18h-3.88c-3.95.04-7.87.75-11.58 2.1a54.402 54.402 0 0 1-18.46 2.94c-6.08 0-12.13-.96-17.92-2.82a43.314 43.314 0 0 0-12.87-2.22H0v-3.18h3.62c4.67.08 9.31.86 13.75 2.34a55.75 55.75 0 0 0 17.04 2.7c5.95.1 11.87-.85 17.5-2.79 4.02-1.45 8.26-2.21 12.53-2.25Zm3.89 12.1v3.18H0v-3.18h68.34Zm17-14.56 4.47-.94c.61 3.49 2.83 5.17 6.56 5.17 3.4 0 4.96-1.23 4.96-3.24s-1.35-3.16-6.19-3.98c-6.72-1.11-8.86-3.69-8.86-7.54 0-4.39 3.12-7.09 9.43-7.09s8.9 2.95 9.72 7.26l-4.63.9c-.66-2.91-1.89-4.43-5.33-4.43-3.12 0-4.59 1.15-4.59 3.12 0 1.76.94 2.99 6.11 3.94 7.34 1.35 9.02 4.02 9.02 7.54 0 4.51-2.87 7.34-9.8 7.34-7.42-.04-10.25-3.49-10.87-8.04Zm27.38 7.51h-4.43V26h4.43v26.32Zm2.14-9.39c0-6.52 3.69-10.37 9.72-10.37s8.65 3.53 8.65 8.81c0 .74 0 1.6-.08 2.58h-13.9c.33 3.49 2.09 5.25 5.37 5.25 3.07 0 4.14-1.48 4.67-3.32l3.77 1.07c-.9 3.49-3.32 5.86-8.49 5.86-5.9 0-9.72-3.44-9.72-9.88h.01Zm4.42-1.93h9.88c-.16-3.32-1.64-5.04-4.71-5.04s-4.76 1.6-5.17 5.04Zm14.93 1.93c0-6.52 3.69-10.37 9.72-10.37s8.65 3.53 8.65 8.81c0 .74 0 1.6-.08 2.58h-13.9c.33 3.49 2.09 5.25 5.37 5.25 3.08 0 4.14-1.48 4.67-3.32l3.77 1.07c-.9 3.49-3.32 5.86-8.49 5.86-5.9 0-9.72-3.44-9.72-9.88h.01Zm4.43-1.93h9.88c-.16-3.32-1.64-5.04-4.71-5.04s-4.76 1.6-5.17 5.04Zm27.42 11.85c-3.53 0-5.78-2.3-6.72-5.66h-.29v11.36h-4.39v-25.5h4.39v5h.29c1.03-3.32 3.16-5.49 6.64-5.49 4.55 0 7.09 3.61 7.09 10.17s-2.67 10.13-7.01 10.13Zm2.67-10.13c0-4.18-1.48-6.19-4.71-6.19-3.03 0-4.96 2.13-4.96 5.49v1.48c0 3.24 1.97 5.45 4.92 5.45 3.24 0 4.76-2.09 4.76-6.23h-.01Zm24.39 5h-.45c-.98 3.12-3.2 5-6.6 5s-5.86-1.64-5.86-5.41c0-3.44 2.09-5.95 6.97-5.95h5.74v-1.31c0-2.5-1.03-3.94-3.73-3.94-2.25 0-3.57 1.15-4.06 3.4l-4.18-.94c.74-3.65 3.49-5.99 8.41-5.99 5.58 0 7.95 2.62 7.95 7.42v12.3h-4.18v-4.59h-.01Zm-.2-2.66v-.78h-5c-2.21 0-3.49.82-3.49 2.42 0 1.39.86 2.58 3.36 2.58 3.07 0 5.12-1.8 5.12-4.22Zm7.46-15.29V26.2h4.8v3.57h-4.8Zm.16 22.55V33.05h4.43v19.27h-4.43Z" />
</svg>
