<svg class="w-auto h-full shrink-0 fill-logo-color" viewBox="0 0 144 44" fill="none" xmlns="http://www.w3.org/2000/svg">
      <path
            d="M9.76937 22.7984C12.6118 24.965 15.7278 27.3426 19.63 28.447C19.644 28.447 19.6581 28.454 19.6721 28.4611C19.8546 28.5103 20.0441 28.5596 20.2336 28.6088C21.4267 28.9253 22.6689 29.1082 23.9673 29.1082C24.634 29.1082 25.2867 29.0449 25.9324 28.9605C26.0517 28.9464 26.164 28.9253 26.2762 28.9042C27.1465 28.7635 27.9887 28.5455 28.8028 28.2571C28.8519 28.243 28.9011 28.2219 28.9502 28.2008C29.1958 28.1094 29.4485 28.0249 29.6871 27.9194C32.6277 26.7236 35.3017 24.7891 37.7791 22.9954C41.0145 20.66 44.0675 18.4512 46.8888 18.4512H47.9626V16.2142H46.8888C43.5481 16.2142 40.3969 18.3527 37.0843 20.7444C37.9686 18.8662 38.4809 16.7699 38.4809 14.5541C38.4809 6.51383 31.975 0 23.9532 0C15.9384 0 9.4325 6.52086 9.4325 14.5541C9.4325 16.8051 9.95887 18.9225 10.8642 20.8288C7.72707 18.4301 4.7373 16.2213 1.17204 16.2213H0V18.4582H1.17204C4.07759 18.4582 6.71644 20.47 9.76235 22.7984H9.76937ZM23.9602 2.23693C27.9045 2.23693 31.6171 4.13621 33.9261 7.34388C35.435 9.44013 36.2491 11.9584 36.2491 14.5471C36.2491 19.6329 33.1752 23.9942 28.7958 25.8724C28.7116 25.9076 28.6344 25.9357 28.5502 25.9709C28.3887 26.0342 28.2133 26.0975 28.0448 26.1538C27.3921 26.3789 26.7254 26.5548 26.0517 26.6743C25.8902 26.7025 25.7288 26.7306 25.5674 26.7517C25.392 26.7728 25.2095 26.801 25.027 26.815C24.9358 26.8221 24.8375 26.8221 24.7393 26.8291C24.5427 26.8432 24.3462 26.8502 24.1497 26.8502C23.104 26.8502 22.1215 26.7376 21.181 26.5407C15.7349 25.2745 11.6783 20.3997 11.6713 14.5612C11.6713 7.75891 17.1666 2.24396 23.9532 2.24396L23.9602 2.23693ZM47.9556 27.005H46.8818C43.8709 27.005 41.1759 28.3626 38.0528 29.9383C34.256 31.8587 29.9468 34.0253 24.1497 34.0253C18.3527 34.0253 13.4469 31.7602 9.34828 29.7624C6.3164 28.2852 3.69159 27.005 1.17906 27.005H0V24.768H1.17204C4.20392 24.768 7.17263 26.2171 10.3238 27.7506C14.2049 29.6428 18.6053 31.7883 24.1497 31.7883C29.6941 31.7883 33.3015 29.8328 37.0492 27.9405C40.2846 26.3086 43.3376 24.768 46.8818 24.768H47.9556V27.005ZM45.2325 33.2515H47.9556V35.4884H45.2325C42.4603 35.5165 39.7091 36.016 37.1054 36.9656C32.9365 38.4006 28.5572 39.097 24.1497 39.0337C19.8826 39.0337 15.6366 38.3584 11.5731 37.05C8.66049 36.0723 5.61458 35.5517 2.5406 35.4884H0V33.2515H2.5406C5.81811 33.3078 9.07457 33.8564 12.1907 34.8975C16.0577 36.1496 20.0932 36.7898 24.1497 36.7968C28.3256 36.8671 32.4804 36.1989 36.4316 34.8342C39.2529 33.8142 42.2287 33.2796 45.2255 33.2515H45.2325ZM47.9626 41.7631V44H0V41.7631H47.9556H47.9626ZM59.8936 31.521L63.0307 30.8598C63.4588 33.3148 65.0169 34.4966 67.6347 34.4966C70.0209 34.4966 71.1157 33.6313 71.1157 32.2174C71.1157 30.8035 70.1682 29.9946 66.7714 29.4177C62.0552 28.6369 60.5533 26.8221 60.5533 24.1138C60.5533 21.0257 62.743 19.1265 67.1715 19.1265C71.6 19.1265 73.4177 21.2016 73.9932 24.2334L70.7437 24.8665C70.2805 22.8195 69.4173 21.7503 67.003 21.7503C64.8133 21.7503 63.7817 22.5592 63.7817 23.945C63.7817 25.1831 64.4414 26.0483 68.0698 26.7165C73.2212 27.6662 74.4002 29.5444 74.4002 32.0205C74.4002 35.193 72.386 37.1837 67.5224 37.1837C62.3148 37.1556 60.3287 34.7287 59.8936 31.5281V31.521ZM79.1095 36.8038H76.0004V18.2894H79.1095V36.8038ZM80.6114 30.1986C80.6114 25.6122 83.2011 22.9039 87.4331 22.9039C91.6651 22.9039 93.5039 25.3871 93.5039 29.1012C93.5039 29.6217 93.5039 30.2267 93.4477 30.9161H83.6924C83.924 33.3711 85.1592 34.6091 87.4612 34.6091C89.6158 34.6091 90.3667 33.568 90.7387 32.2737L93.3845 33.0264C92.7529 35.4814 91.0545 37.1485 87.4261 37.1485C83.2853 37.1485 80.6043 34.7287 80.6043 30.1986H80.6114ZM83.7134 28.8409H90.6474C90.5351 26.5055 89.4964 25.2956 87.3419 25.2956C85.1872 25.2956 84.0012 26.4211 83.7134 28.8409ZM94.1916 30.1986C94.1916 25.6122 96.7814 22.9039 101.013 22.9039C105.245 22.9039 107.084 25.3871 107.084 29.1012C107.084 29.6217 107.084 30.2267 107.028 30.9161H97.2726C97.5042 33.3711 98.7395 34.6091 101.041 34.6091C103.203 34.6091 103.947 33.568 104.319 32.2737L106.965 33.0264C106.333 35.4814 104.635 37.1485 101.006 37.1485C96.8656 37.1485 94.1846 34.7287 94.1846 30.1986H94.1916ZM97.3007 28.8409H104.235C104.122 26.5055 103.084 25.2956 100.929 25.2956C98.7745 25.2956 97.5885 26.4211 97.3007 28.8409ZM116.545 37.1767C114.067 37.1767 112.488 35.5588 111.828 33.1952H111.625V41.1863H108.544V23.2486H111.625V26.7658H111.828C112.551 24.4304 114.046 22.9039 116.489 22.9039C119.682 22.9039 121.464 25.4433 121.464 30.0579C121.464 34.6724 119.591 37.1837 116.545 37.1837V37.1767ZM118.419 30.0508C118.419 27.1105 117.38 25.6966 115.113 25.6966C112.986 25.6966 111.632 27.1949 111.632 29.5584V30.5995C111.632 32.8787 113.015 34.4333 115.085 34.4333C117.359 34.4333 118.426 32.9631 118.426 30.0508H118.419ZM125.788 33.2796V36.7968H122.187V33.2796H125.788ZM135.536 33.568H135.22C134.532 35.7628 132.974 37.0852 130.588 37.0852C128.202 37.0852 126.475 35.9316 126.475 33.2796C126.475 30.8598 127.942 29.0942 131.367 29.0942H135.396V28.1727C135.396 26.4141 134.673 25.4011 132.778 25.4011C131.199 25.4011 130.272 26.2101 129.928 27.7928L126.995 27.1316C127.514 24.564 129.444 22.918 132.897 22.918C136.813 22.918 138.477 24.761 138.477 28.1375V36.7898H135.543V33.561L135.536 33.568ZM135.396 31.6969V31.1482H131.887C130.336 31.1482 129.437 31.725 129.437 32.8505C129.437 33.8283 130.041 34.6654 131.795 34.6654C133.95 34.6654 135.389 33.3992 135.389 31.6969H135.396ZM140.631 20.9413V18.4301H144V20.9413H140.631ZM140.744 36.8038V23.2486H143.853V36.8038H140.744Z" />
</svg>