<svg width="332" height="175" viewBox="0 0 332 175" fill="none" xmlns="http://www.w3.org/2000/svg">
<rect x="0.597168" y="0.29834" width="330.65" height="174.026" fill="black"/>
<g clip-path="url(#clip0_134_122)">
<path d="M192.892 64.7065C192.892 79.6665 195.292 83.1565 199.172 83.1565C203.052 83.1565 205.452 79.8265 205.452 64.7765C205.452 49.7265 203.052 46.3965 199.172 46.3965C195.292 46.3965 192.892 49.6565 192.892 64.6965M178.782 64.6965C178.782 51.6665 186.922 44.9265 199.172 44.9265C211.422 44.9265 219.642 51.5965 219.642 64.7765C219.642 77.9565 211.422 84.5465 199.172 84.5465C186.922 84.5465 178.782 77.8765 178.782 64.6965Z" fill="#FDE0CA"/>
<path d="M90.7321 90.0864H64.6621V91.0264L69.0221 95.1264C69.6421 95.7464 69.7221 95.9764 69.7221 96.9864V137.696C69.7221 138.706 69.6421 138.936 69.0221 139.556L64.6621 143.656V144.596H91.0721V143.836L84.6121 139.096C83.8421 138.476 83.7621 138.166 83.7621 137.156V93.1164C83.7621 91.7964 83.9921 91.6464 85.1621 91.6464H88.1121C93.9221 91.6464 97.3421 97.7764 97.3421 106.916C97.3421 116.686 93.6221 122.816 87.3421 122.816H85.4321V124.366H88.8121C102.462 124.366 111.992 118.786 111.992 106.536C111.992 94.2864 101.602 90.0964 90.7521 90.0964" fill="#FDE0CA"/>
<path d="M184.462 135.056L184.922 124.046C184.922 123.816 185.002 122.026 185.002 121.256C185.002 115.286 183.602 111.486 181.122 109.156C178.332 106.516 174.302 105.586 169.102 105.586C163.902 105.586 158.632 106.676 153.442 108.536L157.702 118.216H159.242L164.762 107.996C165.232 107.146 165.302 107.066 166.852 107.066C170.882 107.066 172.512 110.636 172.512 115.986V116.376L172.362 124.676C170.272 123.206 167.482 122.586 164.142 122.586C157.782 122.586 151.112 126.616 151.112 134.296C151.112 141.426 155.992 145.226 161.662 145.226C165.402 145.226 168.552 143.556 170.552 140.856V138.596C169.702 139.196 168.742 139.566 167.782 139.566C165.142 139.566 163.212 137.236 163.212 132.976C163.212 128.476 165.462 124.986 169.492 124.986C170.502 124.986 171.432 125.146 172.362 125.456L172.202 136.776V137.706C172.432 142.586 176.232 145.226 180.652 145.226C183.532 145.226 185.752 144.206 187.192 142.566C185.532 139.746 184.292 138.096 184.452 135.066" fill="#FDE0CA"/>
<path d="M280.282 45.5564H268.692V47.4564L272.352 55.0964C272.972 56.3364 273.132 56.5664 272.582 58.0464L266.692 75.4964L258.942 52.0764C258.632 51.1464 258.712 50.9164 259.172 50.1364L260.982 47.1064V45.5664H243.332V47.3264L244.902 50.3764C245.602 51.7764 245.912 52.6264 246.532 54.4864L248.392 60.0664L243.042 75.5764L235.362 52.0864C235.052 51.1564 235.132 50.9264 235.592 50.1464L237.392 47.1264V45.5764H219.752V47.3364L221.322 50.3764C222.022 51.6964 222.332 52.7064 222.952 54.4864L232.952 83.9464H241.712L249.152 62.3964L256.592 83.9464H265.272L274.112 58.2864C274.572 56.8864 274.882 56.3464 275.822 54.7964L280.262 47.1564V45.5764L280.282 45.5564Z" fill="#FDE0CA"/>
<path d="M129.522 73.1565C126.912 76.1165 123.342 77.3465 119.712 77.3465C113.742 77.3465 108.622 73.2365 108.622 63.1565V61.6065C108.772 50.3665 110.952 46.4065 114.822 46.4065C118.002 46.4065 120.092 49.1165 120.092 59.2765C120.092 59.5865 120.092 60.5965 120.012 61.6065H110.272V63.0065H131.872C131.952 62.0765 131.952 61.5365 131.952 61.2965C131.952 48.8165 123.192 44.9365 114.972 44.9365C104.662 44.9365 95.512 50.6765 95.512 65.0165C95.512 79.3565 104.742 84.5565 114.512 84.5565C122.282 84.5565 127.832 81.1965 130.532 74.0965L129.512 73.1565H129.522Z" fill="#FDE0CA"/>
<path d="M145.932 133.816C143.322 136.776 139.752 138.006 136.122 138.006C130.152 138.006 125.032 133.896 125.032 123.816V122.266C125.182 111.026 127.362 107.066 131.232 107.066C134.412 107.066 136.502 109.776 136.502 119.936C136.502 120.246 136.502 121.256 136.422 122.266H126.682V123.666H148.282C148.362 122.736 148.362 122.196 148.362 121.956C148.362 109.476 139.602 105.596 131.382 105.596C121.072 105.596 111.922 111.336 111.922 125.676C111.922 140.016 121.152 145.216 130.922 145.216C138.692 145.216 144.242 141.856 146.942 134.756L145.922 133.816H145.932Z" fill="#FDE0CA"/>
<path d="M134.602 29.4265V30.2965L137.572 33.0865C138.192 33.7065 138.272 34.0165 138.272 35.0265V78.3465C138.272 79.3565 138.192 79.5865 137.572 80.2065L134.602 82.9965V83.9365H154.682V82.9965L151.712 80.2065C151.012 79.5865 150.932 79.3565 150.932 78.3465V29.4265H134.602Z" fill="#FDE0CA"/>
<path d="M156.862 29.4265V30.2965L159.832 33.0865C160.452 33.7065 160.532 34.0165 160.532 35.0265V78.3465C160.532 79.3565 160.452 79.5865 159.832 80.2065L156.862 82.9965V83.9365H176.942V82.9965L173.972 80.2065C173.272 79.5865 173.192 79.3565 173.192 78.3465V29.4265H156.862Z" fill="#FDE0CA"/>
<path d="M103.712 29.4265H85.982V30.7465L91.822 38.9665C92.522 39.9765 92.592 40.2065 92.052 41.3665L83.132 59.5865L71.822 36.7965C71.362 35.8665 71.512 35.6365 72.132 34.9365L75.952 30.5465V29.4265H51.562V30.6965L54.612 34.7765C55.392 35.7865 55.932 36.6365 56.702 38.1065L69.492 62.6065C69.882 63.2265 69.952 63.6965 69.952 64.5465V76.4865C69.952 77.6465 69.872 77.8065 69.182 78.5065L64.272 83.0165V83.9365H89.702V83.0365L84.842 78.5065C84.072 77.8065 83.992 77.6565 83.992 76.4865V63.2265C83.992 61.8265 84.072 61.3665 84.612 60.2765L93.682 41.8265C94.382 40.5065 94.612 40.1165 95.772 38.9565L103.702 30.4665V29.4265H103.712Z" fill="#FDE0CA"/>
<path d="M241.712 114.666V90.0864H225.412V91.0264L228.382 93.8164C229.002 94.4364 229.082 94.7464 229.082 95.7564V139.026C229.082 140.036 229.002 140.266 228.382 140.886L225.412 143.676V144.616H245.452V143.676L242.492 140.896C241.792 140.276 241.722 140.046 241.722 139.036V114.686L241.712 114.666Z" fill="#FDE0CA"/>
<path d="M253.422 123.736C253.422 127.456 253.192 137.926 253.192 139.086C253.192 139.936 253.112 140.246 252.412 140.866L249.602 143.616V144.586H269.642V143.646L266.672 140.856C265.972 140.236 265.892 140.006 265.892 138.996C265.972 132.866 266.122 126.746 266.122 121.936C266.122 111.236 261.862 105.576 254.022 105.576C249.072 105.576 245.492 107.696 243.252 111.266V113.686C244.382 112.666 245.762 112.016 247.502 112.016C252.232 112.016 253.392 116.666 253.392 123.726" fill="#FDE0CA"/>
<path d="M214.182 137.926C208.912 137.926 203.712 133.976 203.712 122.106C203.712 112.106 206.352 107.066 211.082 107.066H211.472C212.402 107.066 212.562 107.226 212.872 107.996L217.472 118.216H220.122L223.952 107.916C219.072 106.286 214.882 105.586 210.772 105.586C200.772 105.586 190.152 110.856 190.152 125.826C190.152 139.006 198.992 145.206 208.222 145.206C215.962 145.206 221.072 141.226 223.152 134.696L222.242 133.866C220.192 136.456 217.432 137.916 214.192 137.916" fill="#FDE0CA"/>
<path d="M213.092 29.4066C213.092 29.4066 213.242 35.7766 209.412 39.6066C205.582 43.4366 199.212 43.2866 199.212 43.2866C199.212 43.2866 199.062 36.9166 202.892 33.0866C206.722 29.2566 213.092 29.4066 213.092 29.4066Z" fill="#FDE0CA"/>
<path d="M197.902 38.2364C197.622 37.7364 197.272 37.2664 196.842 36.8364C194.412 34.4064 190.392 34.5064 190.392 34.5064C190.392 34.5064 190.292 38.5364 192.722 40.9564C194.052 42.2864 195.852 42.8564 197.222 43.0964C197.222 42.4364 197.302 40.4964 197.902 38.2264" fill="#FDE0CA"/>
</g>
<defs>
<clipPath id="clip0_134_122">
<rect width="228.72" height="115.81" fill="white" transform="translate(51.562 29.4065)"/>
</clipPath>
</defs>
</svg>
