<svg width="24" height="24" viewBox="0 0 24 24" fill="none" xmlns="http://www.w3.org/2000/svg">
      <path fill-rule="evenodd" clip-rule="evenodd"
            d="M12 24C18.6274 24 24 18.6274 24 12C24 5.37258 18.6274 0 12 0C5.37258 0 0 5.37258 0 12C0 18.6274 5.37258 24 12 24Z"
            fill="white" />
      <path fill-rule="evenodd" clip-rule="evenodd"
            d="M7.99875 23.3167C3.33863 21.669 0 17.2244 0 12C0 6.77555 3.33863 2.33093 7.99875 0.683228V23.3167Z"
            fill="#009A49" />
      <path fill-rule="evenodd" clip-rule="evenodd"
            d="M23.9997 11.9726V12.0273C23.9881 17.2399 20.653 21.6719 16.001 23.3167V0.683228C20.653 2.32804 23.9881 6.76004 23.9997 11.9726Z"
            fill="#FF7900" />
      <path fill-rule="evenodd" clip-rule="evenodd"
            d="M12 23.3C18.2408 23.3 23.3 18.2408 23.3 12C23.3 5.75918 18.2408 0.7 12 0.7C5.75918 0.7 0.7 5.75918 0.7 12C0.7 18.2408 5.75918 23.3 12 23.3ZM12 24C18.6274 24 24 18.6274 24 12C24 5.37258 18.6274 0 12 0C5.37258 0 0 5.37258 0 12C0 18.6274 5.37258 24 12 24Z"
            fill="#31356D" />
</svg>