<svg width="24" height="24" viewBox="0 0 24 24" fill="none" xmlns="http://www.w3.org/2000/svg">
<path fill-rule="evenodd" clip-rule="evenodd" d="M23.9803 12.6938C23.9934 12.4642 24 12.2329 24 12C24 11.7671 23.9934 11.5358 23.9803 11.3063H0.019719C0.00663252 11.5358 0 11.7671 0 12C0 12.2329 0.00663254 12.4642 0.019719 12.6938H23.9803ZM23.8202 14.0813H0.179836C0.262017 14.5512 0.371542 15.0118 0.506712 15.4613H23.4933C23.6285 15.0118 23.738 14.5512 23.8202 14.0813ZM22.9817 16.845H1.01828C1.23028 17.3248 1.47281 17.7882 1.7434 18.2325H22.2566C22.5272 17.7882 22.7697 17.3248 22.9817 16.845ZM21.2768 19.6125H2.72324C4.92405 22.2913 8.26248 24 12 24C15.7375 24 19.076 22.2913 21.2768 19.6125ZM0.178527 9.92625H23.8215C23.7391 9.45368 23.6292 8.9906 23.4933 8.53875H0.506712C0.370823 8.9906 0.260852 9.45368 0.178527 9.92625ZM1.01662 7.15875H22.9834C22.7716 6.67894 22.5293 6.21562 22.2589 5.77125H1.74112C1.47074 6.21562 1.22842 6.67894 1.01662 7.15875ZM2.72324 4.3875H21.2768C19.076 1.70868 15.7375 0 12 0C8.26248 0 4.92405 1.70868 2.72324 4.3875Z" fill="#BD3D44"/>
<path fill-rule="evenodd" clip-rule="evenodd" d="M23.8208 9.92257C23.9001 10.3768 23.9539 10.8398 23.9805 11.3101H0.0195312C0.0461898 10.8398 0.0999259 10.3768 0.179205 9.92257H23.8208ZM22.9818 7.15507C23.1795 7.60263 23.3507 8.06454 23.4933 8.53882H0.506734C0.649367 8.06454 0.820554 7.60263 1.0183 7.15507H22.9818ZM21.2768 4.38757C21.6354 4.82412 21.9639 5.28644 22.2589 5.77132H1.74114C2.03617 5.28644 2.36461 4.82412 2.72326 4.38757H21.2768ZM23.8202 14.0813C23.8996 13.6271 23.9535 13.1641 23.9803 12.6938H0.0197458C0.0465517 13.1641 0.100436 13.6271 0.179864 14.0813H23.8202ZM23.4933 15.4613H0.506741C0.649773 15.9369 0.82152 16.4001 1.01997 16.8488H22.9801C23.1785 16.4001 23.3503 15.9369 23.4933 15.4613ZM22.2589 18.2288H1.74115C2.03703 18.7151 2.36651 19.1787 2.72636 19.6163H21.2737C21.6335 19.1787 21.963 18.7151 22.2589 18.2288Z" fill="white"/>
<path fill-rule="evenodd" clip-rule="evenodd" d="M14.6969 0.30435C13.8299 0.105211 12.927 0 11.9996 0C11.0722 0 10.1693 0.105211 9.30229 0.30435H14.6969ZM3.98145 3.07185C4.56113 2.55091 5.19182 2.08561 5.86512 1.68435H18.1341C18.8074 2.08561 19.4381 2.55091 20.0177 3.07185H3.98145Z" fill="white"/>
<path fill-rule="evenodd" clip-rule="evenodd" d="M5.86603 22.316C5.19428 21.9157 4.56493 21.4517 3.98633 20.9323H20.0135C19.4349 21.4517 18.8055 21.9157 18.1338 22.316H5.86603ZM14.6792 23.6998C13.8177 23.8962 12.9209 24 11.9999 24C11.0789 24 10.1821 23.8962 9.32057 23.6998H14.6792Z" fill="white"/>
<path fill-rule="evenodd" clip-rule="evenodd" d="M13.68 0.116671V3V12.6938H0.019719C0.00663254 12.4642 0 12.2329 0 12C0 8.41592 1.57126 5.19883 4.06253 3C6.17793 1.13291 8.95666 0 12 0C12.5702 0 13.131 0.0397644 13.68 0.116671Z" fill="#192F5D"/>
<path fill-rule="evenodd" clip-rule="evenodd" d="M3.32086 3.71305C3.36943 3.66219 3.41845 3.61176 3.46791 3.56176L3.54383 3.79873H3.94883L3.62258 4.03498L3.74258 4.42123L3.42008 4.18123L3.09383 4.41748L3.21758 4.03498L3.10096 3.94955C3.14683 3.89888 3.19312 3.8486 3.23983 3.79873H3.29258L3.32086 3.71305ZM2.0047 5.35732C2.13794 5.15723 2.27703 4.96137 2.42172 4.76998H2.81258L2.48633 5.00248L2.60633 5.38873L2.28758 5.15248L2.0047 5.35732ZM1.42381 6.32544C1.43057 6.31286 1.43736 6.30029 1.44417 6.28773L1.46633 6.35623L1.42381 6.32544ZM0.761221 7.78477C0.774829 7.7485 0.788607 7.71232 0.802555 7.67623H1.02008L1.14008 7.29373L1.26758 7.67623H1.66508L1.34258 7.91248L1.46633 8.29873L1.14008 8.05873L0.817578 8.29498L0.937578 7.91248L0.761221 7.78477ZM5.82383 3.79873L5.70008 3.41248L5.57633 3.79873H5.17133L5.49758 4.03498L5.37383 4.41748L5.70008 4.18123L6.02633 4.42123L5.90258 4.03498L6.22508 3.79873H5.82383ZM8.10383 3.79873L7.98008 3.41248L7.85258 3.79873H7.45133L7.78133 4.03498L7.65383 4.41748L7.98008 4.18123L8.30633 4.42123L8.18258 4.03498L8.50883 3.79873H8.10383ZM10.3838 3.79873L10.2601 3.41248L10.1363 3.79873H9.73508L10.0576 4.03498L9.93383 4.41748L10.2601 4.18123L10.5863 4.42123L10.4626 4.03498L10.7851 3.79873H10.3838ZM12.6638 3.79873L12.5401 3.41248L12.4163 3.79873H12.0113L12.3413 4.03498L12.2138 4.41748L12.5401 4.18123L12.8663 4.42123L12.7388 4.03498L13.0688 3.79873H12.6638ZM4.68758 4.76998L4.56008 4.38748L4.43633 4.76998H4.03133L4.35758 5.00248L4.23383 5.38873L4.56008 5.15248L4.88633 5.38873L4.75883 5.00248L5.08883 4.76998H4.68758ZM6.96383 4.76998L6.84008 4.38748L6.71258 4.76998H6.31508L6.63758 5.00248L6.51383 5.38873L6.84008 5.15248L7.16633 5.38873L7.04258 5.00248L7.36883 4.76998H6.96383ZM9.24758 4.76998L9.12008 4.38748L9.00008 4.76998H8.59133L8.91758 5.00248L8.79758 5.38873L9.12008 5.15248L9.44633 5.38873L9.31883 5.00248L9.64883 4.76998H9.24758ZM11.5238 4.76998L11.4001 4.38748L11.2763 4.76998H10.8751L11.1976 5.00248L11.0738 5.38873L11.4001 5.15248L11.7263 5.38873L11.6026 5.00248L11.9288 4.76998H11.5238ZM3.54383 5.73748L3.42008 5.34748L3.29258 5.73373H2.89508L3.21758 5.96998L3.09383 6.35623L3.42008 6.11998L3.74258 6.35623L3.62258 5.97373L3.94883 5.73748H3.54383ZM5.82383 5.73373L5.70008 5.34748L5.57633 5.72998H5.17133L5.49758 5.96623L5.37383 6.35248L5.70008 6.11623L6.02633 6.35248L5.90258 5.96998L6.22508 5.73373H5.82383ZM8.10383 5.73373L7.98008 5.34748L7.85258 5.72998H7.45133L7.78133 5.96623L7.65383 6.35248L7.98008 6.11623L8.30633 6.35248L8.18258 5.96998L8.50883 5.73373H8.10383ZM10.3838 5.73373L10.2601 5.34748L10.1363 5.72998H9.73508L10.0576 5.96623L9.93383 6.35248L10.2601 6.11623L10.5863 6.35248L10.4626 5.96998L10.7851 5.73373H10.3838ZM12.6638 5.73373L12.5401 5.34748L12.4163 5.72998H12.0113L12.3413 5.96623L12.2138 6.35248L12.5401 6.11623L12.8663 6.35248L12.7388 5.96998L13.0688 5.73373H12.6638ZM2.40383 6.70498L2.28008 6.32248L2.16008 6.70498H1.75883L2.08133 6.94123L1.95758 7.32373L2.28383 7.08748L2.61008 7.32748L2.48633 6.94123L2.81258 6.70498H2.40383ZM4.68758 6.70498L4.56008 6.32248L4.43633 6.70498H4.03133L4.35758 6.94123L4.23383 7.32373L4.56008 7.08748L4.88633 7.32748L4.75883 6.94123L5.08883 6.70498H4.68758ZM6.96383 6.70498L6.84008 6.32248L6.71258 6.70498H6.31508L6.63758 6.94123L6.51383 7.32373L6.84008 7.08748L7.16633 7.32748L7.04258 6.94123L7.36883 6.70498H6.96383ZM9.24758 6.70498L9.12008 6.32248L9.00008 6.70498H8.59133L8.91758 6.94123L8.79758 7.32373L9.12008 7.08748L9.44633 7.32748L9.32258 6.94123L9.64883 6.70498H9.24758ZM11.5238 6.70498L11.4001 6.32248L11.2763 6.70498H10.8751L11.1976 6.94123L11.0738 7.32373L11.4001 7.08748L11.7263 7.32748L11.6026 6.94123L11.9288 6.70498H11.5238ZM3.54383 7.67623L3.42008 7.29373L3.29258 7.67623H2.89508L3.21758 7.91248L3.09383 8.29498L3.42008 8.05873L3.74258 8.29498L3.62258 7.91248L3.94883 7.67623H3.54383ZM5.82383 7.67623L5.70008 7.29373L5.57633 7.67623H5.17133L5.49758 7.91248L5.37383 8.29498L5.70008 8.05873L6.02633 8.29873L5.90258 7.91248L6.22508 7.67623H5.82383ZM8.10383 7.67623L7.98008 7.29373L7.85258 7.67623H7.45133L7.78133 7.91248L7.65383 8.29498L7.98008 8.05873L8.30633 8.29873L8.18258 7.91248L8.50883 7.67623H8.10383ZM10.3838 7.67623L10.2601 7.29373L10.1363 7.67623H9.73508L10.0576 7.91248L9.93383 8.29498L10.2601 8.05873L10.5863 8.29873L10.4626 7.91248L10.7851 7.67623H10.3838ZM12.6638 7.67623L12.5401 7.29373L12.4126 7.67623H12.0076L12.3376 7.91248L12.2138 8.29498L12.5401 8.05873L12.8663 8.29873L12.7388 7.91248L13.0688 7.67623H12.6638ZM2.40383 8.64748L2.28008 8.26123L2.16008 8.64373H1.75883L2.08133 8.87998L1.95758 9.26623L2.28383 9.02623L2.61008 9.26623L2.48633 8.87998L2.81258 8.64748H2.40383ZM4.68758 8.64748L4.56008 8.26123L4.43633 8.64373H4.03133L4.35758 8.87998L4.23383 9.26623L4.56008 9.02623L4.88633 9.26623L4.75883 8.87998L5.08883 8.64748H4.68758ZM6.96383 8.64748L6.84008 8.26123L6.71258 8.64373H6.31508L6.63758 8.87998L6.51383 9.26623L6.84008 9.02623L7.16633 9.26623L7.04258 8.87998L7.36883 8.64748H6.96383ZM9.24758 8.64748L9.12008 8.26123L9.00008 8.64373H8.59133L8.91758 8.87998L8.79758 9.26623L9.12008 9.02623L9.44633 9.26623L9.32258 8.87998L9.64883 8.64748H9.24758ZM11.5238 8.64748L11.4001 8.26123L11.2763 8.64373H10.8751L11.1976 8.87998L11.0738 9.26623L11.4001 9.02623L11.7263 9.26623L11.6026 8.87998L11.9288 8.64748H11.5238ZM1.26758 9.61497L1.14008 9.22873L1.02008 9.61123H0.611328L0.937578 9.84748L0.817578 10.23L1.14008 9.99748L1.46633 10.23L1.34258 9.85123L1.66508 9.61497H1.26758ZM3.54383 9.61497L3.42008 9.22873L3.29258 9.61123H2.89508L3.22133 9.84748L3.09383 10.23L3.42008 9.99748L3.74633 10.23L3.62258 9.85123L3.94883 9.61497H3.54383ZM5.82383 9.61497L5.70008 9.22873L5.57633 9.61123H5.17133L5.49758 9.84748L5.37383 10.23L5.70008 9.99748L6.02633 10.23L5.90258 9.85123L6.22508 9.61497H5.82383ZM8.10383 9.61497L7.98008 9.22873L7.85258 9.61123H7.45133L7.78133 9.84748L7.65383 10.23L7.98008 9.99748L8.30633 10.23L8.18258 9.85123L8.50883 9.61497H8.10383ZM10.3838 9.61497L10.2601 9.22873L10.1363 9.61123H9.73508L10.0576 9.84748L9.93383 10.23L10.2601 9.99748L10.5863 10.23L10.4626 9.85123L10.7851 9.61497H10.3838ZM12.6638 9.61497L12.5401 9.22873L12.4163 9.61123H12.0113L12.3413 9.84748L12.2138 10.23L12.5401 9.99748L12.8663 10.23L12.7388 9.85123L13.0688 9.61497H12.6638ZM2.40383 10.5825L2.28008 10.2L2.16008 10.5825H1.75883L2.08133 10.8187L1.95758 11.2012L2.28383 10.965L2.61008 11.205L2.48633 10.8187L2.81258 10.5825H2.40383ZM4.68758 10.5825L4.56008 10.2L4.43633 10.5825H4.03133L4.35758 10.8187L4.23383 11.2012L4.56008 10.965L4.88633 11.205L4.75883 10.8187L5.08883 10.5825H4.68758ZM6.96383 10.5825L6.84008 10.2L6.71258 10.5825H6.31508L6.63758 10.8187L6.51383 11.2012L6.84008 10.965L7.16633 11.205L7.04258 10.8187L7.36883 10.5825H6.96383ZM9.24758 10.5825L9.12008 10.2L9.00008 10.5825H8.59133L8.91758 10.8187L8.79758 11.2012L9.12008 10.965L9.44633 11.205L9.32258 10.8187L9.64883 10.5825H9.24758ZM11.5238 10.5825L11.4001 10.2L11.2763 10.5825H10.8751L11.1976 10.8187L11.0738 11.2012L11.4001 10.965L11.7263 11.205L11.6026 10.8187L11.9288 10.5825H11.5238ZM1.26758 11.5537L1.14008 11.1712L1.02008 11.55H0.611328L0.937578 11.7862L0.817578 12.1725L1.14008 11.9362L1.46633 12.1725L1.34258 11.79L1.66508 11.5537H1.26758ZM3.54383 11.5537L3.42008 11.1712L3.29258 11.55H2.89508L3.22133 11.7862L3.09383 12.1725L3.42008 11.9362L3.74633 12.1725L3.62258 11.79L3.94883 11.5537H3.54383ZM5.82383 11.5537L5.70008 11.1712L5.58383 11.55H5.17883L5.50508 11.7862L5.38133 12.1725L5.70758 11.9362L6.03383 12.1725L5.91008 11.79L6.22508 11.5537H5.82383ZM8.10383 11.5537L7.98008 11.1712L7.85258 11.55H7.45133L7.78133 11.7862L7.65383 12.1725L7.98008 11.9362L8.30633 12.1725L8.18258 11.79L8.50883 11.5537H8.10383ZM10.3838 11.5537L10.2601 11.1712L10.1363 11.55H9.73508L10.0576 11.7862L9.93383 12.1725L10.2601 11.9362L10.5863 12.1725L10.4626 11.79L10.7851 11.5537H10.3838ZM12.6638 11.5537L12.5401 11.1712L12.4163 11.55H12.0113L12.3413 11.7862L12.2138 12.1725L12.5401 11.9362L12.8663 12.1725L12.7388 11.79L13.0688 11.5537H12.6638Z" fill="white"/>
<path fill-rule="evenodd" clip-rule="evenodd" d="M10.4993 0.0929098C10.3469 0.111917 10.1954 0.133782 10.0448 0.158449L9.93352 0.502524L10.2598 0.266274L10.586 0.506275L10.4623 0.120025L10.4993 0.0929098ZM6.57064 1.29548C6.74929 1.2047 6.9305 1.11826 7.11416 1.03629L7.04227 1.08753L7.16602 1.47377L6.83977 1.23378L6.51352 1.47377L6.57064 1.29548ZM5.39397 1.98022C5.52524 1.89351 5.65832 1.8093 5.79313 1.72767L5.82352 1.82252H6.22477L5.90227 2.05877L6.02602 2.43753L5.69977 2.20503L5.37352 2.43753L5.49727 2.05503L5.39397 1.98022ZM4.48276 2.64556C4.52375 2.61258 4.56497 2.57986 4.6064 2.54741L4.68727 2.79002H5.08852L4.75852 3.02627L4.88602 3.41253L4.55977 3.17252L4.23352 3.40877L4.35727 3.02627L4.17969 2.89768C4.22175 2.86151 4.26407 2.82562 4.30664 2.79002H4.43602L4.48276 2.64556ZM12.1713 0.0012207C12.4037 0.00447845 12.6344 0.0143385 12.8634 0.0306234L12.7385 0.120025L12.866 0.506275L12.5398 0.266274L12.2135 0.502524L12.3373 0.120025L12.1713 0.0012207ZM9.11977 0.468775L9.24727 0.855025H9.64852L9.32227 1.08753L9.44602 1.47377L9.11977 1.23378L8.79727 1.47377L8.91727 1.08753L8.59102 0.851275H8.99977L9.11977 0.468775ZM11.3998 0.468775L11.5235 0.855025H11.9285L11.6023 1.08753L11.726 1.47377L11.3998 1.23378L11.0735 1.47377L11.1973 1.08753L10.8748 0.851275H11.276L11.3998 0.468775ZM7.97977 1.43627L8.10352 1.82252H8.50852L8.18227 2.05877L8.30602 2.43753L7.97977 2.20503L7.65352 2.43753L7.78102 2.05503L7.45102 1.81878H7.85227L7.97977 1.43627ZM10.2598 1.43627L10.3835 1.82252H10.7848L10.4623 2.05877L10.586 2.43753L10.2598 2.20503L9.93352 2.43753L10.0573 2.05503L9.73477 1.81878H10.136L10.2598 1.43627ZM12.5398 1.43627L12.6635 1.82252H13.0685L12.7385 2.05877L12.866 2.43753L12.5398 2.20503L12.2135 2.43753L12.341 2.05503L12.011 1.81878H12.416L12.5398 1.43627ZM6.83977 2.40753L6.96352 2.79002H7.36852L7.04227 3.02627L7.16602 3.41253L6.83977 3.17252L6.51352 3.40877L6.63727 3.02627L6.31477 2.79002H6.71227L6.83977 2.40753ZM9.11977 2.40753L9.24727 2.79002H9.64852L9.32227 3.02627L9.44602 3.41253L9.11977 3.17252L8.79727 3.40877L8.91727 3.02627L8.59102 2.79002H8.99977L9.11977 2.40753ZM11.3998 2.40753L11.5235 2.79002H11.9285L11.6023 3.02627L11.726 3.41253L11.3998 3.17252L11.0735 3.40877L11.1973 3.02627L10.8748 2.79002H11.276L11.3998 2.40753Z" fill="white"/>
<path fill-rule="evenodd" clip-rule="evenodd" d="M12 23.3C18.2408 23.3 23.3 18.2408 23.3 12C23.3 5.75918 18.2408 0.7 12 0.7C5.75918 0.7 0.7 5.75918 0.7 12C0.7 18.2408 5.75918 23.3 12 23.3ZM12 24C18.6274 24 24 18.6274 24 12C24 5.37258 18.6274 0 12 0C5.37258 0 0 5.37258 0 12C0 18.6274 5.37258 24 12 24Z" fill="#31356D"/>
</svg>