<svg class="w-[1120px] shrink-0 h-full !stroke-background-primary-bg-stroke" viewBox="0 0 1123 242" fill="none" xmlns="http://www.w3.org/2000/svg">
<path d="M335.169 1.33247L76.6649 240.989M300.472 1.32174L2 240.989H1121.99M369.878 1.34319L151.33 240.989M404.588 1.35392L226.008 240.989M439.298 1.35392C439.298 1.35392 435.444 8.02476 429.022 19.1142L417.634 38.805C378.643 106.2 300.673 240.989 300.673 240.989M474.008 1.0858C466.555 18.6638 459.864 36.896 452.973 54.3989C450.618 60.2546 448.236 66.0782 445.828 71.8696C440.997 83.4631 436.033 94.9387 430.815 106.264C428.767 111.198 426.72 116.185 424.659 121.182C399.999 181.08 375.324 240.989 375.324 240.989M508.718 1.70784C502.683 28.3161 500.007 55.1282 492.112 82.4336C490.547 89.1044 488.941 95.7109 487.308 102.307C475.854 148.498 462.781 194.508 450.003 240.989M543.414 2.83394C542.812 35.8235 540.136 67.998 538.691 101.073C538.196 109.181 537.674 117.214 537.098 125.247C534.248 165.39 530.727 201.189 525 240.989M578.124 2.84467C581.63 35.8235 578.953 67.9979 583.73 101.084C584.252 109.203 584.814 117.236 585.403 125.258C588.387 165.39 590.649 201.189 597.5 240.989M612.847 1.69711C619.096 34.751 625.786 69.0704 635.006 102.35C636.718 108.945 638.458 115.53 640.237 122.126C650.902 161.658 662.624 201.157 674.037 241M647.543 1C656.549 25.0987 667.253 47.6208 677.075 71.4192C679.631 77.2213 682.16 83.0234 684.635 88.8363C687.097 94.6491 689.506 100.483 691.821 106.339C693.908 111.24 696.022 116.227 698.123 121.215C723.413 181.102 748.689 240.989 748.689 240.989M682.24 1.36464C682.24 1.36464 686.161 8.0462 692.69 19.1786C695.955 24.7447 699.876 31.3941 704.292 38.8801C743.966 106.253 823.327 240.989 823.327 240.989M716.95 1.46117L897.992 240.989M751.673 1.47189L972.684 240.989M786.383 1.48262L1047.36 240.989M1122 240.989L821.079 1.49334C821.079 1.49334 787.319 1.48262 737.008 1.46117C726.945 1.46117 716.214 1.46117 704.961 1.45044C615.068 2.56582 525.417 1.49334 435.444 1.35392C429.022 1.35392 422.719 1.35392 416.591 1.35392L300.472 1.31102M841.164 17.484L716.12 17.4519C709.51 17.4519 702.739 17.4519 695.808 17.4519C648.52 14.3846 601.687 25.1094 554.855 24.0369C512.036 22.9644 469.217 16.5295 425.877 17.3768H405.565C332.867 17.3446 280.521 17.3339 280.521 17.3339M861.235 33.4533C861.235 33.4533 797.797 33.4426 712.159 33.4104C705.576 33.4104 698.859 33.4104 692.021 33.4104C648.534 31.5336 608.391 47.6208 566.911 48.6933C521.416 49.7658 477.259 30.4611 429.865 33.3461C423.027 33.3461 416.31 33.3461 409.726 33.3461C324.089 33.3246 260.651 33.3032 260.651 33.3032M881.293 49.4226C881.293 49.4226 806.842 49.4011 708.721 49.3797C702.177 49.3797 695.527 49.3904 688.797 49.4762C640.505 46.5483 603.039 78.7228 556.206 76.5778C514.726 74.4328 477.259 46.5483 433.25 49.3904C426.506 49.3475 419.869 49.3368 413.326 49.326C315.191 49.3046 240.754 49.2831 240.754 49.2831M901.351 65.3918C901.351 65.3918 822.257 65.3811 718.007 65.3596C711.062 65.3596 703.997 65.3596 696.838 65.3596C689.011 64.7269 681.598 65.0379 674.492 66.0568C637.829 71.2261 612.405 95.8932 578.953 105.546C538.811 118.415 509.373 80.8785 471.599 71.7945C464.454 69.3707 457.121 67.4403 449.454 66.2713C441.787 65.1023 433.798 64.6947 425.369 65.3167H404.2C299.95 65.2953 220.856 65.2738 220.856 65.2738M921.422 81.3611C921.422 81.3611 831.048 81.3504 714.314 81.3289C707.449 81.3289 700.491 81.3289 693.453 81.4576C655.211 80.8677 624.435 103.39 597.673 123.767C562.883 149.507 524.079 124.839 497.317 104.462C479.922 89.4476 454.499 80.8677 428.901 81.2753C421.863 81.2753 414.905 81.2753 408.04 81.2753C291.306 81.2538 200.932 81.2431 200.932 81.2431M941.48 97.3196C941.48 97.3196 846.101 97.3089 722.891 97.2874C715.638 97.2874 708.306 97.2874 700.879 97.2874C651.21 94.81 624.448 131.274 585.644 150.579C568.249 158.086 548.178 157.014 532.121 147.362C497.331 125.912 467.893 94.81 421.649 97.2553C414.222 97.2553 406.876 97.2553 399.637 97.2553L181.049 97.2231M961.551 113.289C961.551 113.289 854.692 113.278 719.064 113.257H697.427C681.986 111.959 667.267 117.321 652.548 124.829C616.42 144.133 581.63 185.96 533.459 163.438C497.331 145.206 470.569 111.959 425.275 113.225H403.638C268.01 113.203 161.151 113.192 161.151 113.192M981.609 129.258C981.609 129.258 863.429 129.247 715.719 129.237C708.68 129.237 701.589 129.237 694.43 129.237C649.885 130.202 624.462 165.594 584.319 177.391C544.177 190.261 512.063 164.521 481.287 145.217C465.23 136.637 449.173 128.057 428.446 129.204C421.287 129.204 414.182 129.204 407.157 129.204C259.433 129.194 141.267 129.183 141.267 129.183M1001.68 145.238C1001.68 145.238 877.881 145.238 723.132 145.217C715.759 145.217 708.319 145.217 700.826 145.217C684.648 144.155 669.93 147.372 655.211 153.807C619.082 172.039 581.616 199.924 537.46 187.054C497.317 175.257 467.879 143.082 422.184 145.195C414.691 145.195 407.251 145.195 399.878 145.195C245.129 145.184 121.33 145.174 121.33 145.174M1021.74 161.197C1021.74 161.197 886.498 161.197 719.719 161.175H697.788C685.987 160.221 675.282 161.293 665.915 166.656C601.687 200.975 521 201.162 469.217 169.873C457.175 162.366 441.118 160.221 425.382 161.154C418.023 161.154 410.703 161.154 403.451 161.154C236.659 161.154 101.433 161.132 101.433 161.132M1041.71 177.091H643.312M1061.83 193.114L61.6784 193.071M1081.91 209.083L41.7677 209.062M1101.97 225.052L21.8705 225.042M482.853 177.091H81.5766" stroke-miterlimit="10"/>
</svg>
