<svg width="16" height="14" viewBox="0 0 16 14" fill="none" xmlns="http://www.w3.org/2000/svg">
<path d="M15.5 13.5H0.514942V11.986H15.5V13.5ZM10.9875 9.15153C11.2299 9.06237 11.4939 8.93957 11.8011 8.79827C12.0501 8.68219 12.3323 8.55267 12.6677 8.408L12.8221 8.34239C13.5183 8.04184 14.4043 7.89156 15.4801 7.89156V6.37759C13.6157 6.37759 13.4513 6.42637 12.2377 6.94785L12.0849 7.01346C11.7297 7.16654 11.4375 7.30111 11.1801 7.42055C10.8913 7.55512 10.6638 7.65942 10.4779 7.72839C9.78058 7.98577 8.7114 8.17922 7.99087 8.17922C7.27034 8.17922 6.20116 7.98577 5.50387 7.72839C5.31793 7.65942 5.09048 7.55344 4.8016 7.42055C4.54261 7.30111 4.25042 7.16486 3.89513 7.01346L3.74239 6.94785C2.52878 6.42637 2.36442 6.37759 0.5 6.37759V7.89156C1.57471 7.89156 2.46071 8.04128 3.158 8.34071L3.3124 8.40631C3.64776 8.55098 3.92999 8.68051 4.18069 8.79658C4.48617 8.93789 4.7518 9.06069 4.99253 9.14984C5.85916 9.46946 7.0927 9.69319 7.99087 9.69319C8.88904 9.69319 10.1226 9.46946 10.9892 9.14984L10.9875 9.15153ZM9.4917 5.46752C10.4712 5.07725 11.4242 4.47839 12.3257 3.68776C12.3838 3.63729 12.4419 3.58514 12.5 3.53131C12.6179 3.42534 12.7291 3.3244 12.8387 3.23861C13.8796 2.41434 14.7446 2.01398 15.4817 2.01398V0.5C14.3976 0.5 13.2322 1.00634 11.9189 2.04594C11.7712 2.16369 11.6367 2.28481 11.5055 2.40256C11.4524 2.45135 11.3993 2.49845 11.3478 2.54387C10.5758 3.22179 9.76895 3.7315 8.94715 4.05784C8.53376 4.2227 8.45075 4.2227 7.99253 4.2227C7.53431 4.2227 7.4513 4.2227 7.03791 4.05784C6.21776 3.7315 5.40924 3.22179 4.63724 2.54387C4.58578 2.49845 4.53265 2.44966 4.47952 2.40256C4.34837 2.28481 4.21389 2.16201 4.06613 2.04594C2.74958 1.00634 1.58412 0.5 0.5 0.5V2.01398C1.23713 2.01398 2.1021 2.41434 3.14305 3.2403C3.25263 3.32609 3.36386 3.42702 3.48174 3.533C3.53984 3.58683 3.59795 3.63897 3.65606 3.68944C4.55755 4.48175 5.51052 5.08062 6.49004 5.4692C7.13918 5.72826 7.41976 5.73835 7.99087 5.73835C8.56198 5.73835 8.84256 5.72826 9.4917 5.4692V5.46752Z" fill="white"/>
</svg>
