<svg width="16" height="16" viewBox="0 0 16 16" fill="none" xmlns="http://www.w3.org/2000/svg">
<path fill-rule="evenodd" clip-rule="evenodd" d="M5.17214 2.66669L10.8272 2.66669C11.3639 2.66668 11.8068 2.66667 12.1676 2.69615C12.5423 2.72677 12.8868 2.79248 13.2103 2.95734C13.7121 3.213 14.12 3.62095 14.3757 4.12271C14.5406 4.44627 14.6063 4.79074 14.6369 5.16547C14.6664 5.52626 14.6663 5.96917 14.6663 6.50581L14.6663 9.49424C14.6663 10.0309 14.6664 10.4738 14.6369 10.8346C14.6063 11.2093 14.5406 11.5538 14.3757 11.8773C14.12 12.3791 13.7121 12.787 13.2103 13.0427C12.8868 13.2076 12.5423 13.2733 12.1676 13.3039C11.8068 13.3334 11.3638 13.3334 10.8272 13.3334L5.17216 13.3334C4.6355 13.3334 4.19259 13.3334 3.83179 13.3039C3.45706 13.2733 3.11259 13.2076 2.78903 13.0427C2.28727 12.787 1.87932 12.3791 1.62366 11.8773C1.4588 11.5538 1.39309 11.2093 1.36247 10.8346C1.33299 10.4738 1.333 10.0309 1.33301 9.49422L1.33301 6.50582C1.333 5.96917 1.33299 5.52627 1.36247 5.16547C1.39309 4.79074 1.4588 4.44627 1.62366 4.12271C1.87932 3.62095 2.28727 3.213 2.78903 2.95734C3.11259 2.79248 3.45706 2.72677 3.83179 2.69615C4.19259 2.66667 4.6355 2.66668 5.17214 2.66669ZM3.94037 4.02506C3.64809 4.04894 3.49862 4.09222 3.39435 4.14535C3.14347 4.27318 2.9395 4.47715 2.81167 4.72803C2.75854 4.8323 2.71526 4.98177 2.69138 5.27405C2.66686 5.57411 2.66634 5.9623 2.66634 6.53335V9.46669C2.66634 10.0377 2.66686 10.4259 2.69138 10.726C2.71526 11.0183 2.75854 11.1677 2.81167 11.272C2.9395 11.5229 3.14347 11.7269 3.39435 11.8547C3.49862 11.9078 3.64809 11.9511 3.94037 11.975C4.24043 11.9995 4.62862 12 5.19967 12L10.7997 12C11.3707 12 11.7589 11.9995 12.059 11.975C12.3513 11.9511 12.5007 11.9078 12.605 11.8547C12.8559 11.7269 13.0599 11.5229 13.1877 11.272C13.2408 11.1677 13.2841 11.0183 13.308 10.726C13.3325 10.4259 13.333 10.0377 13.333 9.46669L13.333 6.53335C13.333 5.9623 13.3325 5.57411 13.308 5.27405C13.2841 4.98177 13.2408 4.8323 13.1877 4.72803C13.0599 4.47715 12.8559 4.27318 12.605 4.14535C12.5007 4.09222 12.3513 4.04894 12.059 4.02506C11.7589 4.00054 11.3707 4.00002 10.7997 4.00002L5.19968 4.00002C4.62862 4.00002 4.24043 4.00054 3.94037 4.02506Z" fill="#AFB0AE"/>
<path fill-rule="evenodd" clip-rule="evenodd" d="M4.11698 5.62286C4.32526 5.31924 4.74024 5.24195 5.04386 5.45024L7.62294 7.21949C7.85019 7.37538 8.14994 7.37538 8.37719 7.21949L10.9563 5.45024C11.2599 5.24195 11.6749 5.31924 11.8831 5.62286C12.0914 5.92647 12.0141 6.34145 11.7105 6.54973L9.13144 8.31898C8.44969 8.78666 7.55044 8.78666 6.86869 8.31898L4.2896 6.54973C3.98599 6.34145 3.9087 5.92647 4.11698 5.62286Z" fill="#AFB0AE"/>
</svg>
