<svg width="16" height="16" viewBox="0 0 16 16" fill="none" xmlns="http://www.w3.org/2000/svg">
<path fill-rule="evenodd" clip-rule="evenodd" d="M5.17214 2.66666L10.8272 2.66666C11.3639 2.66665 11.8068 2.66664 12.1676 2.69612C12.5423 2.72674 12.8868 2.79245 13.2103 2.95731C13.7121 3.21297 14.12 3.62092 14.3757 4.12268C14.5406 4.44624 14.6063 4.79071 14.6369 5.16544C14.6664 5.52625 14.6663 5.96917 14.6663 6.50584L14.6663 9.49414C14.6663 10.0308 14.6664 10.4737 14.6369 10.8345C14.6063 11.2093 14.5406 11.5537 14.3757 11.8773C14.12 12.3791 13.7121 12.787 13.2103 13.0427C12.8868 13.2075 12.5423 13.2732 12.1676 13.3039C11.8068 13.3333 11.3638 13.3333 10.8272 13.3333L5.17216 13.3333C4.6355 13.3333 4.19259 13.3333 3.83179 13.3039C3.45706 13.2732 3.11259 13.2075 2.78903 13.0427C2.28727 12.787 1.87932 12.3791 1.62366 11.8773C1.4588 11.5537 1.39309 11.2093 1.36247 10.8345C1.33299 10.4737 1.333 10.0308 1.33301 9.49419L1.33301 6.50579C1.333 5.96914 1.33299 5.52624 1.36247 5.16544C1.39309 4.79071 1.4588 4.44624 1.62366 4.12268C1.87932 3.62092 2.28727 3.21297 2.78903 2.95731C3.11259 2.79245 3.45706 2.72674 3.83179 2.69612C4.19259 2.66664 4.63549 2.66665 5.17214 2.66666ZM3.94037 4.02502C3.64809 4.0489 3.49862 4.09219 3.39435 4.14532C3.14347 4.27315 2.9395 4.47712 2.81167 4.728C2.75854 4.83227 2.71526 4.98174 2.69138 5.27402C2.66686 5.57408 2.66634 5.96227 2.66634 6.53332V9.46666C2.66634 10.0377 2.66686 10.4259 2.69138 10.726C2.71526 11.0182 2.75854 11.1677 2.81167 11.272C2.9395 11.5229 3.14347 11.7268 3.39435 11.8547C3.49862 11.9078 3.64809 11.9511 3.94037 11.975C4.24043 11.9995 4.62862 12 5.19967 12L10.7997 12C11.3707 12 11.7589 11.9995 12.059 11.975C12.3513 11.9511 12.5007 11.9078 12.605 11.8547C12.8559 11.7268 13.0599 11.5229 13.1877 11.272C13.2408 11.1677 13.2841 11.0182 13.308 10.726C13.3325 10.4259 13.333 10.0377 13.333 9.46666L13.333 6.53332C13.333 5.96227 13.3325 5.57408 13.308 5.27402C13.2841 4.98174 13.2408 4.83227 13.1877 4.728C13.0599 4.47712 12.8559 4.27315 12.605 4.14532C12.5007 4.09219 12.3513 4.0489 12.059 4.02502C11.7589 4.00051 11.3707 3.99999 10.7997 3.99999L5.19968 3.99999C4.62862 3.99999 4.24043 4.00051 3.94037 4.02502Z" fill="#A3A6CE"/>
<path d="M8 6.66666C7.63181 6.66666 7.33333 6.96513 7.33333 7.33332C7.33333 7.70151 7.63181 7.99999 8 7.99999H11.3333C11.7015 7.99999 12 7.70151 12 7.33332C12 6.96513 11.7015 6.66666 11.3333 6.66666H8Z" fill="#A3A6CE"/>
<path d="M4.66667 9.33332C4.29848 9.33332 4 9.6318 4 9.99999C4 10.3682 4.29848 10.6667 4.66667 10.6667H8C8.36819 10.6667 8.66667 10.3682 8.66667 9.99999C8.66667 9.6318 8.36819 9.33332 8 9.33332H4.66667Z" fill="#A3A6CE"/>
<path d="M10 9.99999C10 9.6318 10.2985 9.33332 10.6667 9.33332L11.3333 9.33332C11.7015 9.33332 12 9.6318 12 9.99999C12 10.3682 11.7015 10.6667 11.3333 10.6667H10.6667C10.2985 10.6667 10 10.3682 10 9.99999Z" fill="#A3A6CE"/>
<path d="M4.66667 6.66666C4.29848 6.66666 4 6.96513 4 7.33332C4 7.70151 4.29848 7.99999 4.66667 7.99999H5.33333C5.70152 7.99999 6 7.70151 6 7.33332C6 6.96513 5.70152 6.66666 5.33333 6.66666H4.66667Z" fill="#A3A6CE"/>
</svg>
