<svg width="16" height="16" viewBox="0 0 16 16" fill="none" xmlns="http://www.w3.org/2000/svg">
<path fill-rule="evenodd" clip-rule="evenodd" d="M7.99967 2.66665C5.05416 2.66665 2.66634 5.05446 2.66634 7.99998C2.66634 10.9455 5.05416 13.3333 7.99967 13.3333C10.9452 13.3333 13.333 10.9455 13.333 7.99998C13.333 5.05446 10.9452 2.66665 7.99967 2.66665ZM1.33301 7.99998C1.33301 4.31808 4.31778 1.33331 7.99967 1.33331C11.6816 1.33331 14.6663 4.31808 14.6663 7.99998C14.6663 11.6819 11.6816 14.6666 7.99967 14.6666C4.31778 14.6666 1.33301 11.6819 1.33301 7.99998Z" fill="#AFB0AE"/>
<path fill-rule="evenodd" clip-rule="evenodd" d="M7.42256 6.33384C7.2382 6.65254 6.83038 6.76145 6.51167 6.57709C6.19296 6.39273 6.08406 5.98491 6.26842 5.6662C6.61322 5.07014 7.25932 4.66669 8.00044 4.66669C9.10501 4.66669 10.0004 5.56212 10.0004 6.66669C10.0004 7.3985 9.55152 7.99601 9.00044 8.33335C8.55779 8.60433 8.83378 9.33335 7.9987 9.33335C7.63051 9.33335 7.33203 9.03488 7.33203 8.66669C7.33203 8.64328 7.33324 8.62016 7.33559 8.59737C7.35408 8.24479 7.5113 7.95792 7.68247 7.74931C7.86325 7.529 8.10093 7.34916 8.28268 7.24112C9.29382 6.64002 8.06056 5.41029 7.42256 6.33384ZM7.9987 10C7.63051 10 7.33203 10.2985 7.33203 10.6667C7.33203 11.0349 7.63051 11.3334 7.9987 11.3334C8.36689 11.3334 8.66536 11.0349 8.66536 10.6667C8.66536 10.2985 8.36689 10 7.9987 10Z" fill="#AFB0AE"/>
</svg>
