<svg width="16" height="16" viewBox="0 0 16 16" fill="none" xmlns="http://www.w3.org/2000/svg">
<path fill-rule="evenodd" clip-rule="evenodd" d="M2.10967 4.45658C2.24685 3.661 2.70125 3.02281 3.1907 2.53337C3.97274 1.75134 5.26635 1.8443 5.92854 2.73009L7.00952 4.17606C7.60477 4.97228 7.52483 6.08484 6.82188 6.78779L6.74777 6.8619C6.48742 7.12225 6.48742 7.54436 6.74777 7.80471L8.19548 9.25243C8.45583 9.51277 8.87794 9.51278 9.13829 9.25243L9.21241 9.17831C9.91536 8.47536 11.0279 8.39543 11.8241 8.99066L13.281 10.0798C14.1611 10.7377 14.2534 12.0229 13.4764 12.7999C12.9815 13.2948 12.3364 13.7566 11.531 13.8956C10.0483 14.1516 7.20643 14.149 4.52882 11.4714C1.84997 8.79253 1.85465 5.93563 2.10967 4.45658ZM4.1335 3.47618C3.74942 3.86026 3.49635 4.26132 3.42362 4.68313C3.21796 5.87589 3.18778 8.24472 5.47163 10.5286C7.75655 12.8135 10.1122 12.7875 11.3042 12.5817C11.7341 12.5075 12.1421 12.2486 12.5336 11.8571C12.7363 11.6545 12.7122 11.3193 12.4827 11.1477L11.0258 10.0586C10.7604 9.86016 10.3895 9.8868 10.1552 10.1211L10.0811 10.1952C9.30006 10.9763 8.03372 10.9763 7.25268 10.1952L5.80496 8.74752C5.02391 7.96647 5.02391 6.70014 5.80496 5.91909L5.87907 5.84498C6.11339 5.61067 6.14003 5.23981 5.94162 4.97441L4.86064 3.52843C4.68476 3.29318 4.3412 3.26849 4.1335 3.47618Z" fill="#AFB0AE"/>
</svg>
