<svg width="16" height="16" viewBox="0 0 16 16" fill="none" xmlns="http://www.w3.org/2000/svg">
      <path fill-rule="evenodd" clip-rule="evenodd"
            d="M6.00033 10.6666C4.89576 10.6666 4.00033 11.5621 4.00033 12.6666C4.00033 13.0348 4.2988 13.3333 4.66699 13.3333L11.3337 13.3333C11.7018 13.3333 12.0003 13.0348 12.0003 12.6666C12.0003 11.5621 11.1049 10.6666 10.0003 10.6666L6.00033 10.6666ZM2.66699 12.6666C2.66699 10.8257 4.15938 9.33331 6.00033 9.33331L10.0003 9.33331C11.8413 9.33331 13.3337 10.8257 13.3337 12.6666C13.3337 13.7712 12.4382 14.6666 11.3337 14.6666L4.66699 14.6666C3.56242 14.6666 2.66699 13.7712 2.66699 12.6666Z"
            fill="#AFB0AE" />
      <path fill-rule="evenodd" clip-rule="evenodd"
            d="M8.00033 2.66665C6.89576 2.66665 6.00033 3.56208 6.00033 4.66665C6.00033 5.77122 6.89576 6.66665 8.00033 6.66665C9.10489 6.66665 10.0003 5.77122 10.0003 4.66665C10.0003 3.56208 9.10489 2.66665 8.00033 2.66665ZM4.66699 4.66665C4.66699 2.8257 6.15938 1.33331 8.00033 1.33331C9.84127 1.33331 11.3337 2.8257 11.3337 4.66665C11.3337 6.5076 9.84127 7.99998 8.00033 7.99998C6.15938 7.99998 4.66699 6.5076 4.66699 4.66665Z"
            fill="#AFB0AE" />
</svg>