<svg class="fill-ui-icon-fill-primary-default !w-3 w-auto" viewBox="0 0 12 13" fill="none" xmlns="http://www.w3.org/2000/svg">
      <path fill-rule="evenodd" clip-rule="evenodd"
            d="M0.263633 4.39839H2.63451V12.3594H0.263633V4.39839ZM1.43456 0.359375C2.22485 0.359375 2.8686 1.00313 2.8686 1.79342C2.8686 2.58371 2.22485 3.22746 1.43456 3.22746C0.644265 3.22746 0.029541 2.58371 0.029541 1.79342C0.029541 1.00313 0.644265 0.359375 1.43456 0.359375ZM4.03906 4.39839H6.38044V5.51079C6.87812 4.77902 7.69744 4.31084 8.63428 4.31084H9.27803C10.7706 4.31084 11.9706 5.54029 11.9706 7.00336V12.3594H9.62917V11.6276V8.05677C9.59967 7.14943 8.98542 6.44716 8.07808 6.44716C7.17074 6.44716 6.40994 7.14943 6.38044 8.05677V12.3594H4.03906V4.39839Z" />
</svg>