<svg class="fill-ui-icon-fill-primary-default w-3 w-auto" viewBox="0 0 12 8" xmlns="http://www.w3.org/2000/svg">
<path d="M3.38365 0.59375C5.25147 0.59375 6.76731 2.11897 6.76731 4.00087C6.76731 5.88276 5.25147 7.40799 3.38365 7.40799C1.51584 7.40799 0 5.88276 0 4.00087C0 2.11897 1.51584 0.59375 3.38365 0.59375ZM8.78999 0.795549C9.7239 0.795549 10.4842 2.23161 10.4842 4.00556C10.4842 5.77482 9.72859 7.21557 8.78999 7.21557C7.85139 7.21557 7.09582 5.77951 7.09582 4.00556C7.09582 2.23161 7.85608 0.795549 8.78999 0.795549ZM11.404 1.12875C11.7325 1.12875 12 2.41463 12 4.00087C12 5.5871 11.7325 6.87298 11.404 6.87298C11.0755 6.87298 10.808 5.5871 10.808 4.00087C10.808 2.41463 11.0755 1.12875 11.404 1.12875Z"/>
</svg>
