<svg class="closed size-[10px] shrink-0 grow-0" viewBox="0 0 10 10"  xmlns="http://www.w3.org/2000/svg">
<path d="M9.71406 0.285826C9.38863 -0.0396112 8.86099 -0.0396112 8.53555 0.285826L4.99969 3.82168L1.46446 0.286446C1.13902 -0.0389908 0.611385 -0.0389907 0.285948 0.286446C-0.039489 0.611883 -0.0394892 1.13952 0.285948 1.46496L3.82118 5.00019L0.285972 8.5354C-0.0394653 8.86084 -0.0394653 9.38848 0.285972 9.71392C0.611408 10.0394 1.13905 10.0394 1.46448 9.71392L4.99969 6.1787L8.53553 9.71454C8.86096 10.04 9.3886 10.04 9.71404 9.71454C10.0395 9.3891 10.0395 8.86146 9.71404 8.53603L6.17821 5.00019L9.71406 1.46434C10.0395 1.1389 10.0395 0.611263 9.71406 0.285826Z" fill="white"/>
</svg>
