<svg width="12" height="12" class="fill-ui-icon-fill-primary-default" viewBox="0 0 12 12" xmlns="http://www.w3.org/2000/svg">
<path fill-rule="evenodd" clip-rule="evenodd" d="M3.23622 0H8.76378C10.5394 0 12 1.46408 12 3.24401V8.75599C12 10.5359 10.5394 12 8.76378 12H3.23622C1.46056 12 0 10.5359 0 8.75599V3.24401C0 1.46408 1.46056 0 3.23622 0ZM9.2218 2.09579C9.59415 2.09579 9.90925 2.41165 9.90925 2.78489C9.90925 3.15814 9.59415 3.47399 9.2218 3.47399C8.82104 3.47399 8.53436 3.15814 8.53436 2.78489C8.53436 2.41165 8.82062 2.09579 9.2218 2.09579ZM5.98558 2.7275H6.01442C7.79008 2.7275 9.27947 4.22048 9.27947 6.00042C9.27947 7.80884 7.79008 9.27334 6.01442 9.27334H5.98558C4.20993 9.27334 2.74936 7.80926 2.74936 6.00042C2.74936 4.22048 4.20993 2.7275 5.98558 2.7275ZM5.98558 3.84724H6.01442C7.18872 3.84724 8.16242 4.82329 8.16242 6.00042C8.16242 7.20603 7.18872 8.18208 6.01442 8.18208H5.98558C4.81128 8.18208 3.83757 7.20603 3.83757 6.00042C3.83757 4.82329 4.81128 3.84724 5.98558 3.84724ZM3.26505 1.03386H8.73495C9.9665 1.03386 10.9686 2.03882 10.9686 3.27292V8.7275C10.9686 9.96202 9.96608 10.9666 8.73495 10.9666H3.26505C2.0335 10.9666 1.03138 9.9616 1.03138 8.7275V3.27292C1.03138 2.0384 2.03392 1.03386 3.26505 1.03386Z" />
</svg>
