<svg width="12" height="12" class="fill-ui-icon-fill-primary-default" viewBox="0 0 12 12" xmlns="http://www.w3.org/2000/svg">
<path d="M8.87069 5.56141C8.81699 5.53754 8.76925 5.51367 8.71554 5.48981C8.62007 3.78319 7.68919 2.80457 6.12579 2.79861H6.10192C5.16507 2.79861 4.38934 3.19841 3.906 3.9264L4.76527 4.51716C5.1233 3.97414 5.68422 3.86077 6.10192 3.86077H6.11385C6.62703 3.86077 7.02087 4.01591 7.27149 4.3083C7.45647 4.52312 7.57581 4.81551 7.63549 5.18548C7.17601 5.10791 6.6867 5.08404 6.15562 5.11387C4.6698 5.19741 3.70908 6.06862 3.77472 7.27399C3.80456 7.88861 4.11485 8.41372 4.63399 8.75385C5.07557 9.04625 5.64245 9.18946 6.2332 9.15365C7.00893 9.11188 7.62355 8.81353 8.04722 8.27051C8.36945 7.85878 8.5783 7.32173 8.66781 6.64744C9.03777 6.87419 9.31226 7.16658 9.46741 7.51865C9.724 8.12133 9.7419 9.11188 8.93036 9.91745C8.22027 10.6216 7.37293 10.9319 6.08999 10.9378C4.66383 10.9259 3.58377 10.4724 2.88561 9.57732C2.22922 8.74192 1.88909 7.53655 1.87716 5.99702C1.88909 4.45748 2.22922 3.25211 2.88561 2.41671C3.58377 1.5276 4.66383 1.06813 6.08999 1.05619C7.52808 1.06813 8.62007 1.5276 9.34807 2.42268C9.7061 2.86425 9.97462 3.41323 10.1536 4.05768L11.1621 3.78916C10.9473 2.99552 10.6071 2.31527 10.1477 1.74838C9.21679 0.602685 7.8503 0.0119344 6.08999 0H6.08402C4.32967 0.0119344 2.98108 0.602685 2.07407 1.75435C1.2685 2.78071 0.850802 4.20686 0.838867 5.99702C0.850802 7.79314 1.2685 9.21929 2.07407 10.2456C2.98108 11.3973 4.32967 11.9881 6.08402 12H6.08999C7.64742 11.9881 8.75135 11.5823 9.65239 10.6753C10.8399 9.49378 10.8041 8.00796 10.4102 7.09498C10.1298 6.44455 9.59869 5.91348 8.86472 5.56141H8.87069ZM6.17949 8.0915C5.52907 8.1273 4.84881 7.83491 4.81301 7.20835C4.78914 6.74291 5.1412 6.22377 6.2153 6.1641C6.34061 6.15813 6.45995 6.15216 6.57929 6.15216C6.96716 6.15216 7.33116 6.18797 7.66532 6.25957C7.54001 7.80507 6.81798 8.05569 6.17949 8.0915Z"/>
</svg>
