<svg width="12" height="12" viewBox="0 0 12 12" class="fill-ui-icon-fill-primary-default" xmlns="http://www.w3.org/2000/svg">
<path fill-rule="evenodd" clip-rule="evenodd" d="M3.86811 3.259C4.20304 3.04598 4.41648 3.19826 4.53796 3.53318L4.84252 4.32494C4.84252 4.32494 5.05554 4.75141 4.50759 5.17787C4.44657 5.21836 4.42632 5.28937 4.44685 5.39089C4.56876 5.75619 5.05596 6.85292 6.60911 7.70585C6.76139 7.79738 6.79176 7.79738 6.94404 7.67548C7.06594 7.55357 7.21822 7.40129 7.34013 7.27939C7.61431 7.03557 7.76659 6.94446 8.00998 7.12711C8.19263 7.24902 8.37528 7.40129 8.55835 7.5232C8.741 7.67548 9.04556 7.85813 8.741 8.22385L8.46682 8.55877C8.07073 9.04598 7.7358 9.07635 7.21822 8.95486C5.23861 8.43729 3.77657 7.036 3.13709 5.05638C2.92407 4.29499 3.22863 3.65551 3.86811 3.25942V3.259ZM6 0C9.31974 0 12 2.68026 12 6C12 9.31974 9.31974 12 6 12C5.08633 12 4.23341 11.8174 3.47202 11.4516L0.274184 12L0.700647 8.83254L0.670276 8.77179C0.243813 7.94924 0 7.0052 0 6C0 2.68026 2.68026 0 6 0ZM2.22343 10.6599L3.07635 10.5076L3.59393 10.4161C4.32494 10.8121 5.1167 11.0252 6 11.0252C8.77179 11.0252 11.0256 8.77137 11.0256 5.99958C11.0256 3.22778 8.77179 0.974831 6 0.974831C3.22821 0.974831 0.974831 3.22863 0.974831 6C0.974831 7.0052 1.27939 7.91887 1.76659 8.71063L1.70585 9.16746L1.58394 10.0811L1.49241 10.7818L2.22343 10.6599Z"/>
</svg>
